<svg xmlns="http://www.w3.org/2000/svg" xmlns:xlink="http://www.w3.org/1999/xlink" xmlns:inkscape="http://www.inkscape.org/namespaces/inkscape" version="1.1" width="375" height="600" viewBox="120 100 375 600">
<defs>
<clipPath id="clip_1">
<path transform="matrix(1,0,0,-1,0,858.898)" d="M0 858.898H612.288V0H0Z"/>
</clipPath>
</defs>
<g inkscape:groupmode="layer" inkscape:label="&#x30EC;&#x30A4;&#x30E4;&#x30FC; 1">
<path transform="matrix(1,0,0,-1,340.1883,419.5567)" d="M0 0V2.632Z" fill="#ffffff"/>
<g>
<path transform="matrix(1,0,0,-1,305.4585,667.2542)" d="M0 0C-48.988 .285-94.85 19.468-129.139 54.013-163.603 88.736-182.422 135.095-182.128 184.554-181.838 233.395-162.726 279.129-128.312 313.328-93.931 347.495-47.956 366.495 1.143 366.828H1.319C50.596 366.507 96.706 347.351 131.157 312.89 165.786 278.252 184.75 231.955 184.556 182.528 184.364 133.628 165.341 87.79 130.99 53.454 96.501 18.982 50.376-.003 1.114-.003Z" fill="#4e332e"/>
<path transform="matrix(1,0,0,-1,306.6907,313.69264)" d="M0 0C94.332-.614 170.429-75.859 170.057-170.983 169.69-264.882 94.131-340.85-1.155-340.296-94.805-339.751-170.659-264.331-170.094-169.088-169.539-75.38-94.277-.639 0 0" fill="#f15d2b"/>
<path transform="matrix(1,0,0,-1,421.4653,535.2079)" d="M0 0C-8.513 1.63-12.05 7.453-7.971 13.184-6.514 15.231-3.042 16.996-.535 16.938 9.082 16.713 18.074 13.801 26.068 8.304 29.912 5.661 30.8 1.045 28.561-3.09 26.565-6.776 22.642-7.958 18.136-6.23 17.54-6.002 16.942-5.779 16.576-5.64-9.146-70.045-55.714-103.459-125.668-100.765-153.426-99.697-178.296-88.82-200.156-71.582-222.078-54.295-236.791-31.948-245.392-5.911-248.149-6.29-250.606-7.121-252.922-6.83-256.257-6.41-258.479-4.033-259.205-.712-259.958 2.731-258.908 5.932-256.098 7.96-247.999 13.806-238.748 16.613-228.844 17.075-224.297 17.287-220.678 14.01-220.068 9.853-219.506 6.015-222.148 2.108-226.318 .714-227.27 .396-228.293 .292-229.271 .093-223.926-38.79-169.071-82.614-125.381-84.401-93.16-85.719-64.258-78.09-39.146-57.642-20.474-42.439-7.274-23.405 0 0" fill="#4e332e"/>
<path transform="matrix(1,0,0,-1,195.7552,425.1293)" d="M0 0C0-3.938-3.164-7.041-7.181-7.041H-12.294V-70.889C-12.294-74.947-15.58-78.17-19.718-78.17-23.857-78.17-27.143-74.947-27.143-70.889V-7.041H-32.255C-36.272-7.041-39.437-3.938-39.437 0-39.437 3.938-36.272 7.041-32.255 7.041H-7.181C-3.164 7.041 0 3.938 0 0" fill="#030000"/>
<path transform="matrix(1,0,0,-1,216.1395,463.91593)" d="M0 0V14.68C0 20.408-1.217 22.317-4.382 22.317-7.181 22.317-8.52 20.408-8.52 14.68V0ZM-22.883-19.929V14.202C-22.883 27.211-15.458 34.133-4.382 34.133 6.938 34.133 14.12 27.211 14.12 14.202V-2.506C14.12-8.473 10.833-11.337 4.748-11.337H-8.52V-19.929C-8.52-25.181-6.816-27.448-3.773-27.448-.243-27.448 .487-25.181 .487-22.078V-21.362C.487-17.663 3.408-14.798 7.181-14.798 10.955-14.798 13.876-17.663 13.876-21.362V-23.151C13.876-34.251 6.938-40.098-3.895-40.098-15.458-40.098-22.883-33.176-22.883-19.929" fill="#030000"/>
<path transform="matrix(1,0,0,-1,410.5644,463.91593)" d="M0 0V14.68C0 20.408-1.217 22.317-4.382 22.317-7.181 22.317-8.521 20.408-8.521 14.68V0ZM-22.883-19.929V14.202C-22.883 27.211-15.459 34.133-4.382 34.133 6.938 34.133 14.119 27.211 14.119 14.202V-2.506C14.119-8.473 10.833-11.337 4.747-11.337H-8.521V-19.929C-8.521-25.181-6.817-27.448-3.774-27.448-.244-27.448 .487-25.181 .487-22.078V-21.362C.487-17.663 3.408-14.798 7.181-14.798 10.954-14.798 13.876-17.663 13.876-21.362V-23.151C13.876-34.251 6.938-40.098-3.896-40.098-15.459-40.098-22.883-33.176-22.883-19.929" fill="#030000"/>
<path transform="matrix(1,0,0,-1,434.2777,496.1379)" d="M0 0V58.239C0 62.177 3.165 65.4 7.181 65.4 11.199 65.4 14.363 62.177 14.363 58.239V0C14.363-3.939 11.199-7.041 7.181-7.041 3.165-7.041 0-3.939 0 0M-.122 76.379C-.122 80.437 3.043 83.54 7.181 83.54 11.32 83.54 14.485 80.437 14.485 76.379 14.485 72.321 11.32 69.218 7.181 69.218 3.043 69.218-.122 72.321-.122 76.379" fill="#030000"/>
<path transform="matrix(1,0,0,-1,303.469,408.5564)" d="M0 0V-52.733C0-67.213-12.286-74.847-31.016-74.847-33.232-74.847-35.648-74.716-37.865-74.19V-88.275C-37.865-92.617-43.1-96.04-49.746-96.04-56.393-96.04-61.629-92.617-61.629-88.275V0C-61.629 14.48-49.344 22.114-31.016 22.114-12.286 22.114 0 14.48 0 0" fill="#030000"/>
<path transform="matrix(1,0,0,-1,290.0568,408.7887)" d="M0 0C-1.3 6.318-4.925 8.555-14.351 8.555-22.689 8.555-26.678 6.318-27.978 0V-51.55C-26.678-57.737-21.965-60.634-14.351-60.634-4.925-60.634-1.3-58.658 0-52.341Z" fill="#ffffff"/>
<path transform="matrix(1,0,0,-1,377.4421,408.5564)" d="M0 0V-52.733C0-67.213-12.286-74.847-31.016-74.847-33.232-74.847-35.648-74.716-37.865-74.19V-88.275C-37.865-92.617-43.1-96.04-49.746-96.04-56.393-96.04-61.629-92.617-61.629-88.275V0C-61.629 14.48-49.344 22.114-31.016 22.114-12.286 22.114 0 14.48 0 0" fill="#030000"/>
<path transform="matrix(1,0,0,-1,364.0299,408.7887)" d="M0 0C-1.3 6.318-4.925 8.555-14.351 8.555-22.689 8.555-26.678 6.318-27.978 0V-51.55C-26.678-57.737-21.965-60.634-14.351-60.634-4.925-60.634-1.3-58.658 0-52.341Z" fill="#ffffff"/>
<path transform="matrix(1,0,0,-1,285.3673,449.3739)" d="M0 0C0 9.553-5.018 15.218-11.209 15.218-17.399 15.218-22.418 9.553-22.418 0V-1.172C-22.293-2.891-22.215-4.298-22.245-4.298-22.275-4.298-22.22-6.848-22.124-9.964L-21.857-18.585C-21.76-21.702-19.13-24.264-16.012-24.279L-6.453-24.324C-3.335-24.339-.693-21.802-.583-18.686L-.273-9.964C-.162-6.847-.107-4.298-.149-4.298-.192-4.298-.125-2.891 0-1.172Z" fill="#2c292a"/>
<path transform="matrix(1,0,0,-1,281.0426,450.76493)" d="M0 0C0-4.426-3.229-8.015-7.213-8.015-11.197-8.015-14.427-4.426-14.427 0-14.427 4.426-11.197 8.015-7.213 8.015-3.229 8.015 0 4.426 0 0" fill="#ffffff"/>
<path transform="matrix(1,0,0,-1,283.253,465.0134)" d="M0 0C0-2.336-1.894-4.23-4.23-4.23-6.566-4.23-8.46-2.336-8.46 0-8.46 2.336-6.566 4.23-4.23 4.23-1.894 4.23 0 2.336 0 0" fill="#ffffff"/>
<path transform="matrix(1,0,0,-1,284.7881,447.28013)" d="M0 0C0 10.508-5.52 16.739-12.33 16.739-19.139 16.739-24.659 10.508-24.659 0V-1.289C-24.522-3.18-24.437-4.728-24.47-4.728-24.502-4.728-24.45-7.278-24.354-10.394L-24.025-21.011C-23.929-24.127-21.298-26.689-18.18-26.704L-6.531-26.76C-3.413-26.774-.772-24.237-.661-21.121L-.28-10.393C-.169-7.277-.117-4.728-.164-4.728-.211-4.728-.137-3.18 0-1.289Z" fill="#2c292a"/>
<path transform="matrix(1,0,0,-1,277.3212,453.02793)" d="M0 0C0-3.984-2.907-7.213-6.492-7.213-10.077-7.213-12.984-3.984-12.984 0-12.984 3.984-10.077 7.213-6.492 7.213-2.907 7.213 0 3.984 0 0" fill="#ffffff"/>
<path transform="matrix(1,0,0,-1,280.7493,465.97633)" d="M0 0C0-1.892-1.534-3.426-3.426-3.426-5.319-3.426-6.853-1.892-6.853 0-6.853 1.892-5.319 3.426-3.426 3.426-1.534 3.426 0 1.892 0 0" fill="#ffffff"/>
<path transform="matrix(1,0,0,-1,360.7661,445.98023)" d="M0 0C0 10.508-5.52 16.739-12.33 16.739-19.139 16.739-24.659 10.508-24.659 0V-1.289C-24.522-3.18-24.437-4.728-24.47-4.728-24.502-4.728-24.45-7.278-24.354-10.394L-24.025-21.011C-23.929-24.127-21.298-26.689-18.18-26.704L-6.531-26.76C-3.413-26.774-.772-24.237-.661-21.121L-.28-10.393C-.169-7.277-.117-4.728-.164-4.728-.211-4.728-.137-3.18 0-1.289Z" fill="#2c292a"/>
<path transform="matrix(1,0,0,-1,353.2991,451.7279)" d="M0 0C0-3.984-2.907-7.213-6.492-7.213-10.077-7.213-12.984-3.984-12.984 0-12.984 3.984-10.077 7.213-6.492 7.213-2.907 7.213 0 3.984 0 0" fill="#ffffff"/>
<path transform="matrix(1,0,0,-1,356.7272,464.6763)" d="M0 0C0-1.892-1.534-3.426-3.426-3.426-5.319-3.426-6.853-1.892-6.853 0-6.853 1.892-5.319 3.426-3.426 3.426-1.534 3.426 0 1.892 0 0" fill="#ffffff"/>
<path transform="matrix(1,0,0,-1,357.9452,450.67393)" d="M0 0C0 9.553-5.018 15.218-11.209 15.218-17.399 15.218-22.418 9.553-22.418 0V-1.172C-22.293-2.891-22.215-4.298-22.245-4.298-22.275-4.298-22.22-6.848-22.124-9.964L-21.857-18.585C-21.76-21.702-19.13-24.264-16.012-24.279L-6.453-24.324C-3.335-24.339-.693-21.802-.583-18.686L-.273-9.964C-.162-6.847-.107-4.298-.149-4.298-.192-4.298-.125-2.891 0-1.172Z" fill="#2c292a"/>
<path transform="matrix(1,0,0,-1,353.6205,452.065)" d="M0 0C0-4.426-3.229-8.015-7.213-8.015-11.197-8.015-14.427-4.426-14.427 0-14.427 4.426-11.197 8.015-7.213 8.015-3.229 8.015 0 4.426 0 0" fill="#ffffff"/>
<path transform="matrix(1,0,0,-1,355.8309,466.31343)" d="M0 0C0-2.336-1.894-4.23-4.23-4.23-6.566-4.23-8.46-2.336-8.46 0-8.46 2.336-6.566 4.23-4.23 4.23-1.894 4.23 0 2.336 0 0" fill="#ffffff"/>
<path transform="matrix(1,0,0,-1,380.2134,287.0608)" d="M0 0C-8.147 .011-17.294 .551-22.717 6.846-27.639 12.562-27.634 20.564-26.11 30.822-25.717 33.471-25.342 36.126-24.968 38.784-23.379 50.018-21.739 61.635-18.704 72.931-16.631 80.645-7.246 88.602 .61 89.302 .921 89.331 1.243 89.345 1.568 89.345 9.296 89.345 18.405 80.022 20.164 72.67 24.154 55.982 26.604 39.289 28.656 23.734 29.545 17.006 28.201 11.547 24.661 7.507 18.827 .852 8.498 0 .151 0Z" fill="#4e332e"/>
<path transform="matrix(1,0,0,-1,380.2258,279.10084)" d="M0 0C-17.647 .025-20.911 3.762-18.251 21.693-16.201 35.503-14.633 49.488-11.03 62.906-9.81 67.449-3.24 73.009 1.304 73.415 4.81 73.728 11.351 67.284 12.411 62.856 16.193 47.049 18.624 30.875 20.754 14.733 22.185 3.89 16.143-.023 0 0" fill="#ffffff"/>
<path transform="matrix(1,0,0,-1,231.0868,287.0608)" d="M0 0C8.147 .011 17.294 .551 22.717 6.846 27.639 12.562 27.634 20.564 26.11 30.822 25.717 33.471 25.342 36.126 24.968 38.784 23.379 50.018 21.739 61.635 18.704 72.931 16.631 80.645 7.246 88.602-.61 89.302-.921 89.331-1.243 89.345-1.568 89.345-9.296 89.345-18.405 80.022-20.164 72.67-24.154 55.982-26.604 39.289-28.656 23.734-29.545 17.006-28.201 11.547-24.661 7.507-18.827 .852-8.499 0-.151 0Z" fill="#4e332e"/>
<path transform="matrix(1,0,0,-1,231.0744,279.10084)" d="M0 0C17.647 .025 20.911 3.762 18.251 21.693 16.201 35.503 14.633 49.488 11.03 62.906 9.81 67.449 3.24 73.009-1.304 73.415-4.81 73.728-11.351 67.284-12.411 62.856-16.193 47.049-18.624 30.875-20.754 14.733-22.185 3.89-16.143-.023 0 0" fill="#ffffff"/>
<path transform="matrix(1,0,0,-1,151.183,318.40144)" d="M0 0C13.471-8.499 26.822-12.537 42.965-12.942 38.924-21.357 35.867-31.013 33.537-40.951H275.559C273.229-31.013 270.172-21.357 266.132-12.941 282.279-12.536 295.631-8.497 309.112 .014 322.593 8.556 329.433 30.302 329.443 46.72 329.432 64.408 322.025 79.244 309.094 87.441 294.874 96.41 280.787 100.412 263.405 100.416 252.887 100.411 242.764 98.911 233.315 95.957L232.803 95.797 231.006 95.071 230.367 95.923 229.868 96.456C215.805 111.452 188.637 127.476 154.534 127.476 120.461 127.476 93.293 111.452 79.229 96.456L78.732 95.925 78.091 95.071 76.295 95.797 75.782 95.957C66.334 98.911 56.211 100.411 45.683 100.416 28.312 100.412 14.223 96.41-.025 87.424-12.929 79.243-20.336 64.407-20.346 46.705-20.336 30.306-13.5 8.56 0 0" fill="#4e332e"/>
<path transform="matrix(1,0,0,-1,158.2617,307.1819)" d="M0 0C10.722-6.765 22.228-10.916 38.549-10.928L55.719-10.529 50.366-25.115C48.401-28.508 46.623-32.339 45.006-36.506H249.934C248.316-32.339 246.538-28.508 244.573-25.115L239.22-10.533 255.973-10.925 256.384-10.928C272.711-10.916 284.217-6.765 294.933 0 305.642 6.786 309.092 25.149 309.098 35.493 309.092 45.832 305.642 58.216 294.94 65.001 284.205 71.771 272.678 75.926 256.331 75.93 246.894 75.926 238.081 74.541 230.195 72.076L219.432 67.731 213.112 76.161C199.789 90.368 175.445 102.995 147.47 102.99 119.495 102.995 95.15 90.368 81.828 76.161L75.501 67.731 64.745 72.076C56.858 74.541 48.039 75.926 38.608 75.93 22.261 75.926 10.735 71.771 0 65.001-10.702 58.216-14.153 45.832-14.159 35.493-14.153 25.149-10.702 6.786 0 0" fill="#ffffff"/>
<path transform="matrix(1,0,0,-1,212.0962,301.3376)" d="M0 0C0 4.016 .525 7.516 1.575 10.09 3.256 14.104 6.406 15.752 9.766 15.134 13.232 14.516 15.332 11.737 14.177 7.928 13.442 5.456 12.602 3.706 12.602-.206 12.602-4.839 14.807-6.692 17.537-6.692 19.323-6.692 20.793-5.971 21.738-3.809 22.473-1.956 22.893 1.03 22.893 4.016 22.893 6.795 22.473 9.678 21.843 11.428 20.688 14.516 18.588 16.987 14.807 19.767L11.867 21.929C5.356 26.767 1.68 32.43 1.68 40.46 1.68 51.167 8.191 57.241 18.378 57.241 27.619 57.241 34.129 52.814 34.129 41.592V40.357C34.129 36.754 31.714 34.283 28.354 34.283 24.783 34.283 22.368 36.548 22.368 40.357V41.078C22.368 44.681 21.003 46.225 18.588 46.225 16.067 46.225 14.492 44.269 14.492 40.975 14.492 37.166 15.857 35.209 19.638 32.43L24.153 29.032C31.189 23.782 35.705 16.575 35.705 5.766 35.705-10.295 29.404-17.913 17.537-17.913 6.196-17.913 0-10.707 0 0" fill="#f15d2b"/>
<path transform="matrix(1,0,0,-1,285.397,302.0581)" d="M0 0V-1.956C0-12.354-6.301-16.987-13.967-16.987-22.998-16.987-28.984-12.457-28.984-1.647V34.282H-30.454C-33.71 34.282-36.125 36.754-36.125 39.842-36.125 42.93-33.71 45.402-30.454 45.402H-28.984V54.461C-28.984 57.858-26.254 60.638-22.788 60.638-19.323 60.638-16.593 57.858-16.593 54.461V45.402H-13.337C-10.187 45.402-7.666 42.93-7.666 39.842-7.666 36.754-10.187 34.282-13.337 34.282H-16.593V-1.853C-16.593-5.044-15.648-6.28-13.862-6.28-12.182-6.28-11.237-4.942-11.237-2.059V0C-11.237 3.5-9.136 5.765-5.566 5.765-2.206 5.765 0 3.294 0 0" fill="#f15d2b"/>
<path transform="matrix(1,0,0,-1,308.0804,284.4535)" d="M0 0V12.663C0 17.605-1.051 19.252-3.781 19.252-6.196 19.252-7.351 17.605-7.351 12.663V0ZM-19.743-17.193V12.251C-19.743 23.473-13.337 29.444-3.781 29.444 5.986 29.444 12.181 23.473 12.181 12.251V-2.162C12.181-7.309 9.346-9.78 4.096-9.78H-7.351V-17.193C-7.351-21.723-5.881-23.679-3.256-23.679-.21-23.679 .42-21.723 .42-19.046V-18.429C.42-15.237 2.94-12.766 6.195-12.766 9.45-12.766 11.972-15.237 11.972-18.429V-19.972C11.972-29.547 5.986-34.592-3.36-34.592-13.337-34.592-19.743-28.62-19.743-17.193" fill="#f15d2b"/>
<path transform="matrix(1,0,0,-1,345.5722,294.4397)" d="M0 0C0 4.839-1.575 7.104-3.886 7.104-6.406 7.104-7.561 5.559-7.561 .515V-8.648C-7.561-13.487-6.406-15.237-3.886-15.237-1.575-15.237 0-12.766 0-8.03ZM12.287 22.341V-17.811C12.287-21.208 9.556-23.885 6.091-23.885 4.725-23.885 3.36-23.473 2.415-22.649 .315-24.091-2.835-24.811-5.041-24.811-13.967-24.811-19.742-19.664-19.742-9.986V1.647C-19.742 11.531-13.967 16.678-5.041 16.678-3.57 16.678-1.681 16.266 0 15.648V22.341C0 27.076-1.155 28.415-3.36 28.415-5.776 28.415-6.932 26.767-6.932 23.987V23.781C-6.932 20.59-9.241 18.119-12.707 18.119-16.277 18.119-18.587 20.487-18.587 24.296V25.12C-18.587 33.356-13.022 39.327-3.466 39.327 7.141 39.327 12.287 33.356 12.287 22.341" fill="#f15d2b"/>
<path transform="matrix(1,0,0,-1,397.8718,295.3664)" d="M0 0V-16.884C0-20.281-2.731-22.958-6.197-22.958-9.661-22.958-12.392-20.281-12.392-16.884V-.308C-12.392 3.294-13.862 5.044-16.908 5.044H-19.953V-16.884C-19.953-20.281-22.684-22.958-26.149-22.958-29.614-22.958-32.345-20.281-32.345-16.884V49.005C-32.345 52.402-29.614 55.182-26.149 55.182-22.684 55.182-19.953 52.402-19.953 49.005V15.855H-17.433C-14.597 15.855-13.232 17.502-13.232 21.414V33.768C-13.232 37.166-10.712 39.945-7.246 39.945-3.781 39.945-1.051 37.166-1.051 33.768V19.664C-1.051 15.443-2.205 12.045-4.516 9.883-1.366 8.236 0 4.53 0 0" fill="#f15d2b"/>
</g>
</g>
</svg>
